<svg width="24" height="24" viewBox="0 0 24 24" fill="none" xmlns="http://www.w3.org/2000/svg">
<path d="M2 3C2 2.44772 2.44772 2 3 2H21C21.5523 2 22 2.44772 22 3V5C22 5.55228 21.5523 6 21 6H3C2.44772 6 2 5.55228 2 5V3Z" fill="#4758DC"/>
<path d="M2 11C2 10.4477 2.44772 10 3 10H21C21.5523 10 22 10.4477 22 11V13C22 13.5523 21.5523 14 21 14H3C2.44772 14 2 13.5523 2 13V11Z" fill="#4758DC"/>
<path d="M3 18C2.44772 18 2 18.4477 2 19V21C2 21.5523 2.44772 22 3 22H21C21.5523 22 22 21.5523 22 21V19C22 18.4477 21.5523 18 21 18H3Z" fill="#4758DC"/>
</svg>
