<svg width="200" height="200" viewBox="0 0 200 200" fill="none" xmlns="http://www.w3.org/2000/svg">
<rect width="200" height="200" rx="100" fill="#4758DC"/>
<path fill-rule="evenodd" clip-rule="evenodd" d="M54.8613 87.3962L55.0001 87.2552V87H55.2511L84.8613 56.8962L85.0001 57.0327V57H145V61.9672L145.139 62.1037L145 62.2448V115.967L145.139 116.104L145 116.245V117H144.257L115.139 146.604L115 146.467V147H55.0001V87.5327L54.8613 87.3962ZM63.6671 87L85.0001 65.3114V87H63.6671ZM115 138.188L135.841 117H115V138.188ZM91.0001 63H135.841L112.235 87H91.0001V63ZM115 92.4672L115.139 92.6037L139 68.3448V111H115V92.4672ZM109 117V141H65.6507L89.2573 117H109ZM85.0001 112.772L61.0001 137.172V93H85.0001V112.772ZM109 111H91.0001V93H109V111Z" fill="white"/>
</svg>
