<svg width="200" height="200" viewBox="0 0 200 200" fill="none" xmlns="http://www.w3.org/2000/svg">
<rect width="200" height="200" rx="100" fill="#4758DC"/>
<path d="M97.8702 65.8705L91.893 43.5634L85.1422 50.3142L73.8285 39.0005L71.0001 41.8289L82.3138 53.1426L75.563 59.8934L97.8702 65.8705Z" fill="white"/>
<path fill-rule="evenodd" clip-rule="evenodd" d="M68.5584 98.4144L98.5531 68.7714V68.4144H158.553V127.382L158.692 127.518L158.553 127.659V128.414H157.81L128.692 158.018L128.553 157.882V158.414H68.5531V98.4144H74.5531L68.5584 98.4144ZM128.553 128.414H149.394L128.553 149.603V128.414ZM152.553 74.4144H152.414L128.414 98.4144L122.553 98.4144H128.553V122.414H152.553V74.4144ZM122.553 128.414V152.414H79.2037L102.81 128.414H122.553ZM98.5531 124.186L74.5531 148.586V104.414H98.5531V124.186ZM104.553 122.414V104.414H122.553V122.414H104.553Z" fill="white"/>
<path d="M150.893 43.5634L156.87 65.8705L134.563 59.8934L141.314 53.1426L130 41.8289L132.829 39.0005L144.142 50.3142L150.893 43.5634Z" fill="white"/>
<path d="M66.8701 94.8704L60.8929 72.5633L54.1421 79.314L42.8284 68.0003L40 70.8287L51.3137 82.1424L44.563 88.8932L66.8701 94.8704Z" fill="white"/>
</svg>
