<svg width="200" height="200" viewBox="0 0 200 200" fill="none" xmlns="http://www.w3.org/2000/svg">
<rect width="200" height="200" rx="100" fill="#4758DC"/>
<path fill-rule="evenodd" clip-rule="evenodd" d="M76.3296 55C81.6383 67.8294 55.6326 79.4847 49.5702 82H48L48.3512 82.4917L48.3296 82.5C48.3296 82.5 48.3746 82.552 48.4644 82.6501L51.3884 86.7437C57.703 95.5842 67.1159 118.858 54.7113 141.035L52.2142 145.5H115.499L116.379 144.081C116.513 143.865 116.648 143.641 116.783 143.408L141.283 118.5H142.999L143.879 117.081C144.38 116.273 144.895 115.345 145.409 114.305L145.607 114.104L145.54 114.038C150.748 103.302 155.695 81.1519 144.037 56.7085L143.329 55.2223C143.329 55.1483 143.33 55.0742 143.33 55H76.3296ZM87.8124 99.087C87.1642 99.07 86.5033 99.0412 85.8296 99C75.5818 98.3726 67.346 95.3833 61.232 92.1177C65.6417 101.994 69.0377 116.432 64.9871 131.594L82.1495 114.146L82.2113 114.035C85.004 109.043 86.7905 104.002 87.8124 99.087ZM86.283 118.5L65.6272 139.5H112.094C114.406 135.166 116.966 127.76 117.552 118.5H86.283ZM117.641 112.5H89.7069C91.7861 107.923 93.1598 103.348 93.9738 98.8775C103.435 97.945 109.531 94.3167 113.191 91.0738C116.151 98.678 117.423 105.936 117.641 112.5ZM123.646 112.5C123.402 104.394 121.693 95.3711 117.569 85.9626C117.746 85.6665 117.83 85.5 117.83 85.5C117.83 85.5 134.89 78.8097 141.102 65.1555C148.399 84.8811 144.446 102.141 140.435 110.806L138.769 112.5H123.646ZM123.563 118.5C123.331 122.503 122.761 126.215 121.989 129.559L132.867 118.5H123.563Z" fill="white"/>
</svg>
